<svg width="571" height="388" viewBox="0 0 571 388" fill="none" xmlns="http://www.w3.org/2000/svg">
<path d="M1.34939 29.4143H570.326V380.815C570.326 384.411 567.411 387.326 563.815 387.326H7.86095C4.26471 387.326 1.34939 384.411 1.34939 380.815V29.4143Z" fill="white" stroke="black" stroke-width="1.34722"/>
<path opacity="0.1" d="M0.675781 28.7407H571V380.815C571 384.783 567.783 388 563.815 388H7.86095C3.89268 388 0.675781 384.783 0.675781 380.815V28.7407Z" fill="black"/>
<path d="M1.34939 7.18519C1.34939 3.58894 4.26472 0.673611 7.86097 0.673611H563.815C567.411 0.673611 570.326 3.58894 570.326 7.18518V35.2523H1.34939V7.18519Z" fill="white" stroke="black" stroke-width="1.34722"/>
<path fill-rule="evenodd" clip-rule="evenodd" d="M48.2776 22.4536C50.7578 22.4536 52.7683 20.4431 52.7683 17.9629C52.7683 15.4827 50.7578 13.4722 48.2776 13.4722C45.7974 13.4722 43.7869 15.4827 43.7869 17.9629C43.7869 20.4431 45.7974 22.4536 48.2776 22.4536Z" fill="white" stroke="black" stroke-width="1.34722"/>
<path fill-rule="evenodd" clip-rule="evenodd" d="M32.1111 22.4536C34.5913 22.4536 36.6018 20.4431 36.6018 17.9629C36.6018 15.4827 34.5913 13.4722 32.1111 13.4722C29.6309 13.4722 27.6204 15.4827 27.6204 17.9629C27.6204 20.4431 29.6309 22.4536 32.1111 22.4536Z" fill="white" stroke="black" stroke-width="1.34722"/>
<path fill-rule="evenodd" clip-rule="evenodd" d="M15.9444 22.4536C18.4245 22.4536 20.4351 20.4431 20.4351 17.9629C20.4351 15.4827 18.4245 13.4722 15.9444 13.4722C13.4642 13.4722 11.4536 15.4827 11.4536 17.9629C11.4536 20.4431 13.4642 22.4536 15.9444 22.4536Z" fill="white" stroke="black" stroke-width="1.34722"/>
</svg>
