<svg width="116" height="33" viewBox="0 0 116 33" fill="none" xmlns="http://www.w3.org/2000/svg">
<path d="M16.56 8.648V26H13.32V18.416H5.172V26H1.932V8.648H5.172V16.112H13.32V8.648H16.56ZM37.1722 17.324C37.1722 18.596 36.9602 19.776 36.5362 20.864C36.1202 21.944 35.5282 22.88 34.7602 23.672C33.9922 24.464 33.0682 25.084 31.9882 25.532C30.9082 25.972 29.7082 26.192 28.3882 26.192C27.0762 26.192 25.8802 25.972 24.8002 25.532C23.7202 25.084 22.7922 24.464 22.0162 23.672C21.2482 22.88 20.6522 21.944 20.2282 20.864C19.8042 19.776 19.5922 18.596 19.5922 17.324C19.5922 16.052 19.8042 14.876 20.2282 13.796C20.6522 12.708 21.2482 11.768 22.0162 10.976C22.7922 10.184 23.7202 9.568 24.8002 9.128C25.8802 8.68 27.0762 8.456 28.3882 8.456C29.2682 8.456 30.0962 8.56 30.8722 8.768C31.6482 8.968 32.3602 9.256 33.0082 9.632C33.6562 10 34.2362 10.452 34.7482 10.988C35.2682 11.516 35.7082 12.108 36.0682 12.764C36.4282 13.42 36.7002 14.132 36.8842 14.9C37.0762 15.668 37.1722 16.476 37.1722 17.324ZM33.8722 17.324C33.8722 16.372 33.7442 15.52 33.4882 14.768C33.2322 14.008 32.8682 13.364 32.3962 12.836C31.9242 12.308 31.3482 11.904 30.6682 11.624C29.9962 11.344 29.2362 11.204 28.3882 11.204C27.5402 11.204 26.7762 11.344 26.0962 11.624C25.4242 11.904 24.8482 12.308 24.3682 12.836C23.8962 13.364 23.5322 14.008 23.2762 14.768C23.0202 15.52 22.8922 16.372 22.8922 17.324C22.8922 18.276 23.0202 19.132 23.2762 19.892C23.5322 20.644 23.8962 21.284 24.3682 21.812C24.8482 22.332 25.4242 22.732 26.0962 23.012C26.7762 23.292 27.5402 23.432 28.3882 23.432C29.2362 23.432 29.9962 23.292 30.6682 23.012C31.3482 22.732 31.9242 22.332 32.3962 21.812C32.8682 21.284 33.2322 20.644 33.4882 19.892C33.7442 19.132 33.8722 18.276 33.8722 17.324ZM59.023 8.648V26H56.179V14.792C56.179 14.344 56.203 13.86 56.251 13.34L51.007 23.192C50.759 23.664 50.379 23.9 49.867 23.9H49.411C48.899 23.9 48.519 23.664 48.271 23.192L42.967 13.304C42.991 13.568 43.011 13.828 43.027 14.084C43.043 14.34 43.051 14.576 43.051 14.792V26H40.207V8.648H42.643C42.787 8.648 42.911 8.652 43.015 8.66C43.119 8.668 43.211 8.688 43.291 8.72C43.379 8.752 43.455 8.804 43.519 8.876C43.591 8.948 43.659 9.044 43.723 9.164L48.919 18.8C49.055 19.056 49.179 19.32 49.291 19.592C49.411 19.864 49.527 20.144 49.639 20.432C49.751 20.136 49.867 19.852 49.987 19.58C50.107 19.3 50.235 19.032 50.371 18.776L55.495 9.164C55.559 9.044 55.627 8.948 55.699 8.876C55.771 8.804 55.847 8.752 55.927 8.72C56.015 8.688 56.111 8.668 56.215 8.66C56.319 8.652 56.443 8.648 56.587 8.648H59.023ZM66.3345 11.216V16.028H72.4065V18.512H66.3345V23.42H74.0385V26H63.0945V8.648H74.0385V11.216H66.3345ZM91.5063 19.448L89.3943 13.676C89.2903 13.42 89.1823 13.116 89.0703 12.764C88.9583 12.412 88.8463 12.032 88.7343 11.624C88.6303 12.032 88.5223 12.416 88.4103 12.776C88.2983 13.128 88.1903 13.436 88.0863 13.7L85.9863 19.448H91.5063ZM97.2063 26H94.7103C94.4303 26 94.2023 25.932 94.0263 25.796C93.8503 25.652 93.7183 25.476 93.6302 25.268L92.3343 21.728H85.1463L83.8503 25.268C83.7863 25.452 83.6623 25.62 83.4783 25.772C83.2943 25.924 83.0663 26 82.7943 26H80.2742L87.1023 8.648H90.3903L97.2063 26ZM102.442 26H99.2023V8.648H102.442V26Z" fill="black"/>
</svg>
